# xmcd CD database file
#
# Track frame offsets:
#	150
#	19737
#	32917
#	48460
#	68629
#	87958
#	107521
#	132017
#	145759
#	158685
#	182768
#	200786
#	220125
#
# Disc length: 3173 seconds
#
# Revision: 3
# Processed by: cddbd v1.5.2PL0 Copyright (c) Steve Scherf et al.
# Submitted via: CDex 1.78
#
DISCID=b10c630d
DTITLE=Hugh Laurie - Didn't It Rain
DYEAR=2013
DGENRE=Blues
TTITLE0=The St. Louis Blues
TTITLE1=Junkers Blues
TTITLE2=Kiss Of Fire
TTITLE3=Vicksburg Blues
TTITLE4=The Weed Smoker's Dream
TTITLE5=Wild Honey
TTITLE6=Send Me To The 'Lectric Chair
TTITLE7=Evenin'
TTITLE8=Didn't It Rain
TTITLE9=Careless Love
TTITLE10=One For My Baby
TTITLE11=I Hate A Man Like You
TTITLE12=Changes
EXTD=YEAR: 2013
EXTT0=
EXTT1=
EXTT2=
EXTT3=
EXTT4=
EXTT5=
EXTT6=
EXTT7=
EXTT8=
EXTT9=
EXTT10=
EXTT11=
EXTT12=
PLAYORDER=
